<svg width="13" height="13" viewBox="0 0 13 13" fill="none" xmlns="http://www.w3.org/2000/svg">
<path d="M6.16797 0.434463C6.19634 0.376349 6.24017 0.327431 6.29451 0.29323C6.34886 0.259029 6.41154 0.240906 6.4755 0.240906C6.53946 0.240906 6.60215 0.259029 6.65649 0.29323C6.71083 0.327431 6.75466 0.376349 6.78303 0.434463L8.27861 3.50558C8.37713 3.70772 8.52257 3.8826 8.70243 4.01522C8.8823 4.14783 9.09122 4.23422 9.31126 4.26696L12.6559 4.76317C12.7193 4.77248 12.7788 4.79958 12.8278 4.84141C12.8768 4.88324 12.9132 4.93812 12.933 4.99986C12.9528 5.06159 12.9552 5.12772 12.9399 5.19075C12.9245 5.25378 12.8921 5.3112 12.8463 5.35652L10.4274 7.74437C10.2679 7.90196 10.1486 8.09649 10.0797 8.31122C10.0108 8.52595 9.99434 8.75443 10.0319 8.97701L10.6029 12.3507C10.6141 12.4149 10.6072 12.481 10.5831 12.5415C10.5591 12.602 10.5187 12.6544 10.4666 12.6927C10.4146 12.731 10.353 12.7537 10.2888 12.7582C10.2246 12.7628 10.1605 12.7489 10.1037 12.7183L7.11387 11.1246C6.91687 11.0198 6.69769 10.965 6.47518 10.965C6.25267 10.965 6.03349 11.0198 5.83649 11.1246L2.84728 12.7183C2.79052 12.7487 2.72647 12.7624 2.66241 12.7578C2.59835 12.7532 2.53685 12.7305 2.48491 12.6922C2.43297 12.6539 2.39268 12.6016 2.36861 12.5412C2.34454 12.4808 2.33766 12.4148 2.34876 12.3507L2.91915 8.97767C2.95683 8.75499 2.9405 8.52635 2.87159 8.31149C2.80267 8.09663 2.68323 7.90199 2.52357 7.74437L0.104755 5.35718C0.0585238 5.31191 0.0257633 5.25439 0.0102049 5.19117C-0.00535339 5.12794 -0.00308397 5.06156 0.0167546 4.99959C0.0365932 4.93761 0.0732032 4.88252 0.122414 4.84061C0.171626 4.7987 0.23146 4.77164 0.2951 4.76251L3.6391 4.26696C3.85939 4.23447 4.0686 4.1482 4.24871 4.01557C4.42882 3.88293 4.57445 3.70792 4.67305 3.50558L6.16797 0.434463Z" fill="#DE9302"/>
</svg>
